<svg xmlns="http://www.w3.org/2000/svg" width="196" height="196" viewBox="0 0 49 49" fill="none">
  <path
    d="M30.9597 35.1746C40.5425 35.1746 48.311 29.2903 48.311 22.0317C48.311 14.773 40.5425 8.88867 30.9597 8.88867C21.3768 8.88867 13.6083 14.773 13.6083 22.0317C13.6083 29.2903 21.3768 35.1746 30.9597 35.1746Z"
    fill="url(#paint0_radial_2642_18425)" />
  <path
    d="M30.9597 35.1746C40.5425 35.1746 48.311 29.2903 48.311 22.0317C48.311 14.773 40.5425 8.88867 30.9597 8.88867C21.3768 8.88867 13.6083 14.773 13.6083 22.0317C13.6083 29.2903 21.3768 35.1746 30.9597 35.1746Z"
    fill="url(#paint1_radial_2642_18425)" />
  <path
    d="M48.9584 25.204C48.9584 38.2911 38.3493 48.9002 25.2622 48.9002C12.1752 48.9002 1.56598 38.2911 1.56598 25.204C1.56598 12.117 12.1752 1.50781 25.2622 1.50781C31.4128 4.29179 37.8472 14.6509 40.5416 17.888C43.2363 21.1251 50.2106 25.204 46.7925 16.6475C48.2499 18.9603 48.9584 22.7975 48.9584 25.204Z"
    fill="url(#paint2_radial_2642_18425)" />
  <path
    d="M48.9584 25.204C48.9584 38.2911 38.3493 48.9002 25.2622 48.9002C12.1752 48.9002 1.56598 38.2911 1.56598 25.204C1.56598 12.117 12.1752 1.50781 25.2622 1.50781C31.4128 4.29179 37.8472 14.6509 40.5416 17.888C43.2363 21.1251 50.2106 25.204 46.7925 16.6475C48.2499 18.9603 48.9584 22.7975 48.9584 25.204Z"
    fill="url(#paint3_radial_2642_18425)" />
  <path
    d="M48.9584 25.204C48.9584 38.2911 38.3493 48.9002 25.2622 48.9002C12.1752 48.9002 1.56598 38.2911 1.56598 25.204C1.56598 12.117 12.1752 1.50781 25.2622 1.50781C31.4128 4.29179 37.8472 14.6509 40.5416 17.888C43.2363 21.1251 50.2106 25.204 46.7925 16.6475C48.2499 18.9603 48.9584 22.7975 48.9584 25.204Z"
    fill="url(#paint4_radial_2642_18425)" />
  <path
    d="M48.9584 25.204C48.9584 38.2911 38.3493 48.9002 25.2622 48.9002C12.1752 48.9002 1.56598 38.2911 1.56598 25.204C1.56598 12.117 12.1752 1.50781 25.2622 1.50781C31.4128 4.29179 37.8472 14.6509 40.5416 17.888C43.2363 21.1251 50.2106 25.204 46.7925 16.6475C48.2499 18.9603 48.9584 22.7975 48.9584 25.204Z"
    fill="url(#paint5_linear_2642_18425)" />
  <path
    d="M23.2769 21.5057C32.2466 19.5906 40.5452 22.8489 41.8122 28.7833C43.0792 34.7177 36.835 41.081 27.8653 42.9961C18.8955 44.9112 10.597 41.6529 9.32991 35.7185C8.0629 29.7841 14.3072 23.4208 23.2769 21.5057Z"
    fill="url(#paint6_radial_2642_18425)" />
  <path
    d="M23.2769 21.5057C32.2466 19.5906 40.5452 22.8489 41.8122 28.7833C43.0792 34.7177 36.835 41.081 27.8653 42.9961C18.8955 44.9112 10.597 41.6529 9.32991 35.7185C8.0629 29.7841 14.3072 23.4208 23.2769 21.5057Z"
    fill="url(#paint7_linear_2642_18425)" />
  <path xmlns="http://www.w3.org/2000/svg" fill-rule="evenodd" clip-rule="evenodd"
    d="M37.8456 36.5807C40.1955 34.1861 41.1985 31.4902 40.6724 29.0267C40.1465 26.5632 38.1301 24.5121 35.0071 23.2857C31.894 22.0635 27.8132 21.7289 23.5201 22.6456C19.2272 23.5621 15.6387 25.5341 13.2964 27.9212C10.9464 30.3159 9.9436 33.0117 10.4696 35.4752C10.9956 37.9387 13.0119 39.99 16.1349 41.2162C19.2479 42.4384 23.3288 42.773 27.6218 41.8565C31.9148 40.9399 35.5033 38.9678 37.8456 36.5807ZM27.8652 42.9962C36.8349 41.0811 43.0791 34.7178 41.8121 28.7834C40.545 22.849 32.2465 19.5906 23.2769 21.5057C14.3071 23.4208 8.06285 29.7842 9.32993 35.7186C10.5969 41.6529 18.8954 44.9113 27.8652 42.9962Z"
    fill="#D6F8F8" fill-opacity="0.19" />

  <defs>
    <radialGradient id="paint0_radial_2642_18425" cx="0" cy="0" r="1" gradientUnits="userSpaceOnUse"
      gradientTransform="translate(28.0496 30.9643) rotate(-42.6352) scale(23.2268 30.6639)">
      <stop offset="0.771266" stop-color="#001AFF" />
      <stop offset="1" stop-color="#8ACEFF" />
    </radialGradient>
    <radialGradient id="paint1_radial_2642_18425" cx="0" cy="0" r="1" gradientUnits="userSpaceOnUse"
      gradientTransform="translate(34.1945 22.0315) rotate(-30.5427) scale(12.8242 16.9305)">
      <stop offset="0.71875" stop-color="#FA00FF" stop-opacity="0" />
      <stop offset="1" stop-color="#FF00D6" stop-opacity="0.44" />
    </radialGradient>
    <radialGradient id="paint2_radial_2642_18425" cx="0" cy="0" r="1" gradientUnits="userSpaceOnUse"
      gradientTransform="translate(17.5115 21.115) rotate(49.385) scale(36.6032)">
      <stop offset="0.0260417" stop-color="#8DFDFD" />
      <stop offset="0.270833" stop-color="#87FBFB" />
      <stop offset="0.484416" stop-color="#74D6F4" />
      <stop offset="0.931964" stop-color="#0038FF" />
    </radialGradient>
    <radialGradient id="paint3_radial_2642_18425" cx="0" cy="0" r="1" gradientUnits="userSpaceOnUse"
      gradientTransform="translate(23.031 24.3221) rotate(137.237) scale(25.0818)">
      <stop offset="0.266661" stop-color="#0500FF" stop-opacity="0" />
      <stop offset="1" stop-color="#0500FF" stop-opacity="0.15" />
    </radialGradient>
    <radialGradient id="paint4_radial_2642_18425" cx="0" cy="0" r="1" gradientUnits="userSpaceOnUse"
      gradientTransform="translate(19.9893 20.4424) rotate(75.1975) scale(39.0975 39.0975)">
      <stop offset="0.420095" stop-color="#FF00E5" stop-opacity="0" />
      <stop offset="0.773534" stop-color="#FF00F5" stop-opacity="0.64" />
      <stop offset="0.898911" stop-color="#BE46FF" stop-opacity="0.87" />
    </radialGradient>
    <linearGradient id="paint5_linear_2642_18425" x1="7.49025" y1="24.9617" x2="61.5472" y2="25.7022"
      gradientUnits="userSpaceOnUse">
      <stop offset="0.431832" stop-color="#FE62EE" stop-opacity="0" />
      <stop offset="0.818252" stop-color="#FD3AF5" stop-opacity="0.47" />
    </linearGradient>
    <radialGradient id="paint6_radial_2642_18425" cx="0" cy="0" r="1" gradientUnits="userSpaceOnUse"
      gradientTransform="translate(21.0254 25.4153) rotate(83.1476) scale(17.5215 26.4833)">
      <stop stop-color="#00B2FF" />
      <stop offset="0.57093" stop-color="#74C5FF" />
      <stop offset="0.979167" stop-color="#9FD7FF" />
    </radialGradient>
    <linearGradient id="paint7_linear_2642_18425" x1="22.9529" y1="16.3128" x2="26.2367" y2="36.3039"
      gradientUnits="userSpaceOnUse">
      <stop offset="0.0416667" stop-color="#0038FF" />
      <stop offset="0.723958" stop-color="#48BFF1" stop-opacity="0.59" />
      <stop offset="1" stop-color="#74C5FF" stop-opacity="0" />
    </linearGradient>
    <clipPath id="clip0_2642_18425">
      <rect width="151.899" height="48" fill="white" transform="translate(0.974121 0.9375)" />
    </clipPath>
  </defs>
</svg>